<svg width="138" height="77" viewBox="0 0 138 77" fill="none" xmlns="http://www.w3.org/2000/svg">
<path d="M76.1998 61.9137H69.9554L69.9077 61.8446C69.9069 61.8446 69.9069 61.8446 69.9069 61.8446M66.7101 60.4803V55.3591C66.7101 54.8732 67.1458 54.4792 67.6814 54.4792H75.2563" stroke="white" stroke-width="2" stroke-miterlimit="10"/>
<path d="M54.8418 17.9654H49.7141V32.2945H54.8418V17.9654Z" stroke="white" stroke-width="2" stroke-miterlimit="10"/>
<path d="M49.7141 21.4073H54.8419" stroke="white" stroke-width="2" stroke-miterlimit="10"/>
<path d="M32.6441 65.5212H17.9732C16.6729 65.5212 15.5689 64.661 15.3744 63.4965L11.3868 39.6221M10.156 36.6405H49.7139V39.6221H10.156C9.40694 39.6221 8.80023 39.0725 8.80023 38.3947V37.8687C8.80023 37.1909 9.40694 36.6405 10.156 36.6405Z" stroke="white" stroke-width="2" stroke-miterlimit="10"/>
<path d="M30.8086 41.9814L18.4531 32.8408C16.8939 31.6873 17.7943 29.3992 19.8073 29.3992H22.7594C24.0799 29.3992 25.3612 29.8062 26.3926 30.5533L34.8782 36.6995" stroke="white" stroke-width="2" stroke-miterlimit="10"/>
<path d="M40.1025 65.6494L40.1147 65.5212V65.5189" stroke="white" stroke-width="15" stroke-miterlimit="10"/>
<path d="M41.7631 47.5032L40.5756 60.4803" stroke="white" stroke-width="2" stroke-miterlimit="10"/>
<path d="M23.5805 65.6493L21.9196 47.5029" stroke="white" stroke-width="2" stroke-miterlimit="10"/>
<path d="M31.8415 65.6493V47.5029" stroke="white" stroke-width="2" stroke-miterlimit="10"/>
<path d="M31.8413 44.0952C32.6464 44.0952 33.299 43.504 33.299 42.7747C33.299 42.0454 32.6464 41.4542 31.8413 41.4542C31.0362 41.4542 30.3836 42.0454 30.3836 42.7747C30.3836 43.504 31.0362 44.0952 31.8413 44.0952Z" stroke="white" stroke-width="2" stroke-miterlimit="10"/>
<path d="M62.0941 60.4803V43.5655C62.0941 43.229 62.3953 42.9561 62.7668 42.9561H67.4965C67.7915 42.9561 68.0519 43.1299 68.1388 43.3854L69.906 48.6551C70.1247 49.307 70.5092 49.9038 71.0292 50.396L74.7581 53.9288C74.9403 54.1018 75.107 54.2858 75.2563 54.4792C75.8665 55.2671 76.1998 56.2107 76.1998 57.1849V63.1239C76.1998 64.4323 75.0298 65.4922 73.5863 65.4922H71.7714M66.74 40.2609H63.3468C62.9382 40.2609 62.607 40.561 62.607 40.9312V42.9559H67.4799V40.9312C67.4799 40.561 67.1486 40.2609 66.74 40.2609ZM61.0546 36.1132L62.1784 34.5998C62.7536 33.8253 63.7164 33.3607 64.7469 33.3607H72.8756C73.02 33.3607 73.137 33.4667 73.137 33.5975V35.2458C73.137 35.3408 73.0744 35.4265 72.978 35.4636L68.2688 37.2788C67.5484 37.5565 67.0808 38.1971 67.0808 38.9062V40.2609H63.0985V38.7211C63.0985 38.1151 62.7302 37.5582 62.1404 37.2723L61.2549 36.843C60.9627 36.7014 60.8696 36.3622 61.0546 36.1132Z" stroke="white" stroke-width="2" stroke-miterlimit="10"/>
<path d="M69.8222 36.5685C70.2575 37.9032 71.0095 39.1356 72.0256 40.1795L72.7135 40.8864C72.8474 41.024 72.6648 41.2251 72.49 41.1327L71.4039 40.5585C70.2229 39.9341 69.1871 39.1075 68.3544 38.1249L67.7786 37.4455" stroke="white" stroke-width="2" stroke-miterlimit="10"/>
<path d="M70.5831 33.3607V35.0102" stroke="white" stroke-width="15" stroke-miterlimit="10"/>
<path d="M54.8419 62.8422V60.4803" stroke="white" stroke-width="2" stroke-miterlimit="10"/>
<path d="M49.7141 62.8422V60.4803" stroke="white" stroke-width="2" stroke-miterlimit="10"/>
<path d="M36.4816 70.0572C34.7368 70.0572 33.3223 68.7759 33.3223 67.1952V65.519H39.6409V67.1952C39.641 68.7759 38.2265 70.0572 36.4816 70.0572Z" stroke="white" stroke-width="2" stroke-miterlimit="10"/>
<path d="M45.9595 65.519H39.6409V67.1952C39.6409 68.7759 41.0554 70.0572 42.8002 70.0572C44.5451 70.0572 45.9596 68.7759 45.9595 67.1952M45.9595 65.519V67.1952M45.9595 65.519H52.2782M45.9595 67.1952C45.9595 68.7759 47.3741 70.0572 49.119 70.0572C50.8638 70.0572 52.2782 68.7759 52.2782 67.1952M52.2782 65.519V67.1952M52.2782 65.519H58.5969V67.1952C58.5969 68.7759 57.1825 70.0572 55.4376 70.0572C53.6928 70.0572 52.2782 68.7759 52.2782 67.1952M64.9156 65.519H58.5969V67.1952C58.5969 68.7759 60.0115 70.0572 61.7563 70.0572C63.5011 70.0572 64.9156 68.7759 64.9156 67.1952M64.9156 65.519V67.1952M64.9156 65.519H71.2342V67.1952C71.2343 68.7759 69.8199 70.0572 68.0749 70.0572C66.3301 70.0572 64.9156 68.7759 64.9156 67.1952" stroke="white" stroke-width="2" stroke-miterlimit="10"/>
<path d="M71.7713 65.4922C71.7218 65.5095 71.6663 65.519 71.6081 65.519H32.9486C32.5858 65.519 32.3645 65.158 32.5572 64.8782L35.182 61.074C35.4363 60.7044 35.8833 60.4804 36.3651 60.4804H49.7139V9.26558C49.7139 7.98312 50.8622 6.94287 52.2779 6.94287C52.9862 6.94287 53.6268 7.20312 54.0911 7.62301C54.5555 8.04366 54.8419 8.62476 54.8419 9.26558V60.4804H68.1926C68.6361 60.4804 69.0519 60.6722 69.314 60.993C69.3357 61.019 69.3565 61.0457 69.3756 61.074L69.9069 61.8446C69.9069 61.8446 69.9069 61.8446 69.9077 61.8446L69.9554 61.9138L71.9996 64.8782C72.161 65.1124 72.0309 65.4041 71.7713 65.4922Z" stroke="white" stroke-width="2" stroke-miterlimit="10"/>
<path d="M86.74 22V8H89.42L95.38 17.88H93.96L99.82 8H102.5L102.52 22H99.48L99.46 12.66H100.04L95.34 20.52H93.9L89.1 12.66H89.78V22H86.74ZM110.798 22.16C109.651 22.16 108.631 21.92 107.738 21.44C106.858 20.96 106.158 20.3067 105.638 19.48C105.131 18.64 104.878 17.6867 104.878 16.62C104.878 15.54 105.131 14.5867 105.638 13.76C106.158 12.92 106.858 12.2667 107.738 11.8C108.631 11.32 109.651 11.08 110.798 11.08C111.931 11.08 112.944 11.32 113.838 11.8C114.731 12.2667 115.431 12.9133 115.938 13.74C116.444 14.5667 116.698 15.5267 116.698 16.62C116.698 17.6867 116.444 18.64 115.938 19.48C115.431 20.3067 114.731 20.96 113.838 21.44C112.944 21.92 111.931 22.16 110.798 22.16ZM110.798 19.6C111.318 19.6 111.784 19.48 112.198 19.24C112.611 19 112.938 18.66 113.178 18.22C113.418 17.7667 113.538 17.2333 113.538 16.62C113.538 15.9933 113.418 15.46 113.178 15.02C112.938 14.58 112.611 14.24 112.198 14C111.784 13.76 111.318 13.64 110.798 13.64C110.278 13.64 109.811 13.76 109.398 14C108.984 14.24 108.651 14.58 108.398 15.02C108.158 15.46 108.038 15.9933 108.038 16.62C108.038 17.2333 108.158 17.7667 108.398 18.22C108.651 18.66 108.984 19 109.398 19.24C109.811 19.48 110.278 19.6 110.798 19.6ZM118.844 22V11.24H121.944V17.64L127.184 11.24H130.044V22H126.944V15.6L121.724 22H118.844ZM124.244 10.08C123.07 10.08 122.19 9.82667 121.604 9.32C121.017 8.8 120.717 8.02 120.704 6.98H122.744C122.757 7.43333 122.884 7.79333 123.124 8.06C123.364 8.32667 123.73 8.46 124.224 8.46C124.704 8.46 125.07 8.32667 125.324 8.06C125.59 7.79333 125.724 7.43333 125.724 6.98H127.804C127.804 8.02 127.504 8.8 126.904 9.32C126.304 9.82667 125.417 10.08 124.244 10.08ZM96.34 32H99.58V46H96.34V32ZM89.98 46H86.74V32H89.98V46ZM96.58 40.26H89.74V37.52H96.58V40.26ZM108.108 46.16C106.881 46.16 105.801 45.92 104.868 45.44C103.948 44.96 103.234 44.3067 102.728 43.48C102.221 42.64 101.968 41.6867 101.968 40.62C101.968 39.54 102.214 38.5867 102.708 37.76C103.214 36.92 103.901 36.2667 104.768 35.8C105.634 35.32 106.614 35.08 107.708 35.08C108.761 35.08 109.708 35.3067 110.548 35.76C111.401 36.2 112.074 36.84 112.568 37.68C113.061 38.5067 113.308 39.5 113.308 40.66C113.308 40.78 113.301 40.92 113.288 41.08C113.274 41.2267 113.261 41.3667 113.248 41.5H104.508V39.68H111.608L110.408 40.22C110.408 39.66 110.294 39.1733 110.068 38.76C109.841 38.3467 109.528 38.0267 109.128 37.8C108.728 37.56 108.261 37.44 107.728 37.44C107.194 37.44 106.721 37.56 106.308 37.8C105.908 38.0267 105.594 38.3533 105.368 38.78C105.141 39.1933 105.028 39.6867 105.028 40.26V40.74C105.028 41.3267 105.154 41.8467 105.408 42.3C105.674 42.74 106.041 43.08 106.508 43.32C106.988 43.5467 107.548 43.66 108.188 43.66C108.761 43.66 109.261 43.5733 109.688 43.4C110.128 43.2267 110.528 42.9667 110.888 42.62L112.548 44.42C112.054 44.98 111.434 45.4133 110.688 45.72C109.941 46.0133 109.081 46.16 108.108 46.16ZM93.36 70.24C92.28 70.24 91.2733 70.0667 90.34 69.72C89.42 69.36 88.62 68.8533 87.94 68.2C87.26 67.5467 86.7267 66.78 86.34 65.9C85.9667 65.02 85.78 64.0533 85.78 63C85.78 61.9467 85.9667 60.98 86.34 60.1C86.7267 59.22 87.26 58.4533 87.94 57.8C88.6333 57.1467 89.44 56.6467 90.36 56.3C91.28 55.94 92.2867 55.76 93.38 55.76C94.5933 55.76 95.6867 55.9733 96.66 56.4C97.6467 56.8133 98.4733 57.4267 99.14 58.24L97.06 60.16C96.58 59.6133 96.0467 59.2067 95.46 58.94C94.8733 58.66 94.2333 58.52 93.54 58.52C92.8867 58.52 92.2867 58.6267 91.74 58.84C91.1933 59.0533 90.72 59.36 90.32 59.76C89.92 60.16 89.6067 60.6333 89.38 61.18C89.1667 61.7267 89.06 62.3333 89.06 63C89.06 63.6667 89.1667 64.2733 89.38 64.82C89.6067 65.3667 89.92 65.84 90.32 66.24C90.72 66.64 91.1933 66.9467 91.74 67.16C92.2867 67.3733 92.8867 67.48 93.54 67.48C94.2333 67.48 94.8733 67.3467 95.46 67.08C96.0467 66.8 96.58 66.38 97.06 65.82L99.14 67.74C98.4733 68.5533 97.6467 69.1733 96.66 69.6C95.6867 70.0267 94.5867 70.24 93.36 70.24ZM107.393 70V67.9L107.193 67.44V63.68C107.193 63.0133 106.986 62.4933 106.573 62.12C106.173 61.7467 105.553 61.56 104.713 61.56C104.14 61.56 103.573 61.6533 103.013 61.84C102.466 62.0133 102 62.2533 101.613 62.56L100.493 60.38C101.08 59.9667 101.786 59.6467 102.613 59.42C103.44 59.1933 104.28 59.08 105.133 59.08C106.773 59.08 108.046 59.4667 108.953 60.24C109.86 61.0133 110.313 62.22 110.313 63.86V70H107.393ZM104.113 70.16C103.273 70.16 102.553 70.02 101.953 69.74C101.353 69.4467 100.893 69.0533 100.573 68.56C100.253 68.0667 100.093 67.5133 100.093 66.9C100.093 66.26 100.246 65.7 100.553 65.22C100.873 64.74 101.373 64.3667 102.053 64.1C102.733 63.82 103.62 63.68 104.713 63.68H107.573V65.5H105.053C104.32 65.5 103.813 65.62 103.533 65.86C103.266 66.1 103.133 66.4 103.133 66.76C103.133 67.16 103.286 67.48 103.593 67.72C103.913 67.9467 104.346 68.06 104.893 68.06C105.413 68.06 105.88 67.94 106.293 67.7C106.706 67.4467 107.006 67.08 107.193 66.6L107.673 68.04C107.446 68.7333 107.033 69.26 106.433 69.62C105.833 69.98 105.06 70.16 104.113 70.16ZM113.023 70V59.24H116.283L120.343 66.6H119.043L123.383 59.24H126.303L126.343 70H123.523V62.44L124.003 62.76L120.303 68.96H118.983L115.263 62.54L115.843 62.4V70H113.023Z" fill="white"/>
</svg>
